# xmcd
#
# Track frame offsets: 
#        150
#        6845
#        31264
#        40757
#        63685
#        70680
#        95735
#        105441
#        124871
#        130775
#        151121
#        158092
#        185830
#        191967
#        212982
#        220746
#        238109
#
# Disc length: 3329 seconds
#
# Revision: 0
# Processed by: cddbd v1.5.2PL0 Copyright (c) Steve Scherf et al.
# Submitted via: ExactAudioCopy v0.99pb4
#
DISCID=f20cff11
DTITLE=Hank Williams - Mother's Best [CD7]
DYEAR=1951
DGENRE=Country
TTITLE0=Mother's Best 8-B1
TTITLE1=On Top Of Old Smokey
TTITLE2=Columbus Stockade Blues
TTITLE3=Prodigal Son
TTITLE4=Mother's Best 8-B2
TTITLE5=May You Never Be Alone Like Me
TTITLE6=Arkansas Traveler
TTITLE7=I'll Have A New Body
TTITLE8=Mother's Best 9- A1
TTITLE9=Next Sunday Is My Birthday
TTITLE10=Old Joe Clark
TTITLE11=Deck Of Cards
TTITLE12=Mother's Best 9- A2
TTITLE13=Tennessee Border
TTITLE14=Blue Bonnet Rag
TTITLE15=Dear Brother
TTITLE16=Whistlin' Rufus
EXTD=
EXTT0=
EXTT1=
EXTT2=
EXTT3=
EXTT4=
EXTT5=
EXTT6=
EXTT7=
EXTT8=
EXTT9=
EXTT10=
EXTT11=
EXTT12=
EXTT13=
EXTT14=
EXTT15=
EXTT16=
PLAYORDER=
